PathFileType	4	(X/Y/Z)	..\data\2014048\dynamic\2014048_C5_02.trc
DataRate	CameraRate	NumFrames	NumMarkers	Units	OrigDataRate	OrigDataStartFrame	OrigNumFrames
100.000000	100.000000	4	52	mm	100.000000	0	144
Frame#	Time	L_IAS			L_IPS			R_IPS			R_IAS			L_FTC			L_FLE			L_FME			L_FAX			L_TTC			L_FAL			L_TAM			L_FCC			L_FM1			L_FM2			L_FM5			R_FTC			R_FLE			R_FME			R_FAX			R_TTC			R_FAL			R_TAM			R_FCC			R_FM1			R_FM2			R_FM5			CV7			TV10			SXS			SJN			L_SIA			L_SRS			L_SAA			L_SAE			L_HLE			L_HME			L_UOA			L_RSP			L_UHE			L_HM2			L_HM5			R_SIA			R_SRS			R_SAA			R_SAE			R_HLE			R_HME			R_UOA			R_RSP			R_UHE			R_HM2			R_HM5			
		X1	Y1	Z1	X2	Y2	Z2	X3	Y3	Z3	X4	Y4	Z4	X5	Y5	Z5	X6	Y6	Z6	X7	Y7	Z7	X8	Y8	Z8	X9	Y9	Z9	X10	Y10	Z10	X11	Y11	Z11	X12	Y12	Z12	X13	Y13	Z13	X14	Y14	Z14	X15	Y15	Z15	X16	Y16	Z16	X17	Y17	Z17	X18	Y18	Z18	X19	Y19	Z19	X20	Y20	Z20	X21	Y21	Z21	X22	Y22	Z22	X23	Y23	Z23	X24	Y24	Z24	X25	Y25	Z25	X26	Y26	Z26	X27	Y27	Z27	X28	Y28	Z28	X29	Y29	Z29	X30	Y30	Z30	X31	Y31	Z31	X32	Y32	Z32	X33	Y33	Z33	X34	Y34	Z34	X35	Y35	Z35	X36	Y36	Z36	X37	Y37	Z37	X38	Y38	Z38	X39	Y39	Z39	X40	Y40	Z40	X41	Y41	Z41	X42	Y42	Z42	X43	Y43	Z43	X44	Y44	Z44	X45	Y45	Z45	X46	Y46	Z46	X47	Y47	Z47	X48	Y48	Z48	X49	Y49	Z49	X50	Y50	Z50	X51	Y51	Z51	X52	Y52	Z52	

1	0	-1208.4228515625	865.927673339844	69.15097045898425	-1404.861938476563	918.4743652343752	158.3558654785155	-1393.33447265625	910.9276123046877	261.6857910156249	-1189.942016601563	860.8230590820315	307.7945556640624	-1296.937133789063	851.0671386718752	15.20044517517074	-1378.535278320313	428.9710998535157	81.97272491455062	-1367.976928710938	432.2948303222657	212.0455932617186	-1409.713745117188	374.1528015136719	84.19272613525375	-1363.802856445313	353.1582336425782	141.605270385742	-1541.85595703125	80.83936309814455	134.4805450439451	-1510.468627929688	94.70995330810548	219.8230895996092	-1596.456420898438	46.67190170288087	190.1194458007811	-1404.014770507813	19.5044116973877	185.2692565917967	-1403.682983398438	29.82874488830567	130.3895874023436	-1468.375244140625	17.35997962951661	95.29994964599592	-1260.065551757813	830.709899902344	391.7065429687499	-1117.734130859375	434.0450439453126	334.9161987304687	-1124.251708984375	431.8341674804689	200.6755371093749	-1105.986450195313	383.1305541992188	338.8747558593749	-1054.750244140625	398.343231201172	279.5875854492187	-971.0922851562502	74.40843963623048	318.9862365722656	-968.4683227539065	101.8143081665039	235.2867126464843	-1002.481750488281	21.22180366516114	269.9117736816406	-835.7823486328127	91.5872268676758	243.1954498291015	-841.8015747070315	99.78349304199222	292.5291442871093	-869.568542480469	67.51705169677736	333.8352355957031	-1325.154907226563	1372.648315429688	202.2451629638671	-1389.565185546875	1096.152954101563	194.9262237548827	-1174.482177734375	1058.430419921875	209.1893157958984	-1212.68359375	1287.285766601563	205.5343627929687	-1402.41748046875	1159.888916015625	113.6311874389647	-1365.4873046875	1297.591796875	113.4084320068358	-1316.1044921875	1306.25	41.19964599609359	-1266.696533203125	1310.535278320313	39.1135749816893	-1256.016235351563	1007.681701660156	-58.37641906738298	-1279.017700195313	981.9042968750002	20.67691421508774	-1273.849853515625	965.2886962890627	-26.63813591003434	-1060.1875	852.3580322265627	-28.5984039306642	-1110.0693359375	824.640808105469	-83.18660736084	-994.0584716796877	792.3574829101565	-37.54439544677747	-1067.578491210938	758.3677368164064	-90.7629776000978	-1410.989013671875	1152.857055664063	281.0836791992186	-1375.655029296875	1292.015625	282.3245849609374	-1331.472778320313	1295.83740234375	361.1758728027343	-1286.355834960938	1290.9130859375	383.2753906249999	-1398.747802734375	994.2159423828127	422.7035522460937	-1393.60888671875	984.4661254882815	340.7684020996093	-1416.685791015625	979.1468505859377	386.4245300292968	-1330.660888671875	751.2968750000001	438.4485778808593	-1408.3525390625	766.4937744140626	456.0638122558593	-1348.453491210938	656.0588989257814	447.2856750488281	-1434.287353515625	703.0551147460939	463.0483703613281	
2	0.01	-1193.388427734375	864.2764892578127	68.69905090332018	-1389.62060546875	916.641052246094	161.2044525146483	-1376.84375	908.9431152343752	264.2365722656249	-1173.278198242188	858.8699340820315	307.6346740722655	-1283.594482421875	849.2792968750002	16.62983322143539	-1367.515258789063	428.2143554687501	81.86322784423812	-1355.813110351563	430.9565429687501	211.8086853027343	-1399.737426757813	373.9075317382813	84.05421447753891	-1353.520629882813	351.7502136230469	141.3498229980467	-1540.214477539063	83.99079895019533	133.8127441406248	-1508.49462890625	97.18669128417972	219.326934814453	-1595.835815429688	51.92103195190431	189.5784912109373	-1404.03076171875	19.17490005493164	185.0358276367186	-1403.81884765625	29.66620826721192	130.2969818115233	-1468.494873046875	17.27871322631836	95.26603698730452	-1242.235107421875	828.310485839844	392.5991516113281	-1102.031005859375	431.9571533203126	334.6346130371093	-1109.488403320313	429.5911560058595	200.236602783203	-1090.185302734375	380.9531555175782	338.5158996582031	-1039.100830078125	396.9187316894532	279.0580444335937	-950.6855468750002	74.17498016357423	317.9696655273437	-948.1492919921877	101.7987594604492	234.2418212890624	-981.6434326171877	21.30798721313477	268.5830688476562	-815.1150512695315	91.85084533691408	242.1944885253906	-821.1461181640627	99.77435302734378	291.5873107910156	-849.099548339844	67.24733734130861	332.6680297851562	-1309.960571289063	1370.493530273438	203.0666046142577	-1374.002563476563	1094.056640625	196.1504516601561	-1158.9853515625	1056.072021484375	209.7754821777343	-1197.176513671875	1285.194213867188	206.3502044677734	-1387.101440429688	1157.854858398438	114.5471420288085	-1350.278442382813	1295.570922851563	114.2687911987303	-1300.673706054688	1304.4990234375	42.11993026733384	-1251.247680664063	1308.7314453125	40.0482673645018	-1238.867919921875	1005.898498535156	-57.2690162658693	-1261.246459960938	979.7576904296877	21.95703315734848	-1255.697265625	962.9051513671877	-25.43287467956559	-1038.654663085938	856.4934082031252	-27.64178466796889	-1088.083862304688	826.894226074219	-81.71875762939467	-970.8735961914065	798.5484619140627	-36.21558380126966	-1043.656005859375	761.5556030273439	-88.59590148925795	-1395.396850585938	1150.611450195313	281.8150939941405	-1360.121948242188	1289.784057617188	282.9415893554686	-1316.150146484375	1294.078735351563	361.9345703124999	-1271.12548828125	1289.05029296875	384.2953186035156	-1387.45849609375	993.7071533203127	423.5727844238281	-1381.83349609375	983.7011718750002	341.7702026367186	-1404.994140625	978.7517700195315	387.3730163574218	-1321.594482421875	750.1857299804689	439.4017028808593	-1399.029541015625	766.4158325195314	457.6169738769531	-1341.611206054688	654.8812866210939	446.4724121093749	-1426.239990234375	703.7164916992189	464.0149841308593	
3	0.02	-1178.100830078125	862.815124511719	68.4403381347655	-1374.054931640625	915.0321044921877	163.8375091552733	-1360.200561523438	907.3750000000002	266.6721801757811	-1156.52197265625	857.254821777344	307.4892883300781	-1269.738891601563	847.6245117187502	18.04720878601059	-1355.653930664063	427.5130615234376	81.46181488037094	-1342.931396484375	429.5537719726564	211.259307861328	-1388.933349609375	373.7417602539063	83.55518341064437	-1342.4853515625	350.3086853027344	140.7179718017577	-1538.162963867188	87.7213821411133	132.7754058837889	-1506.049926757813	100.0787200927735	218.3820953369139	-1594.651733398438	58.08569717407228	188.7400970458983	-1404.3740234375	18.76204299926758	184.8016662597655	-1404.224487304688	29.40370178222657	130.232955932617	-1468.7294921875	17.27072715759278	95.15913391113264	-1224.3154296875	826.5161132812502	393.5367431640624	-1085.766967773438	430.4657592773439	334.4115905761718	-1093.59326171875	428.2618408203126	200.0027923583984	-1074.09130859375	379.2366333007813	338.2155761718749	-1023.161682128906	395.695526123047	278.5856018066406	-933.6015625000002	73.46822357177736	316.8721008300781	-930.8009033203127	101.1674499511719	233.0782318115234	-964.6480712890627	21.39018249511719	267.1906433105468	-797.778503417969	90.09218597412111	241.1658325195312	-803.7175903320315	97.76524353027347	290.6057739257812	-832.2263183593752	65.40550231933595	331.4656066894531	-1294.610717773438	1368.644775390625	204.0824890136718	-1358.209106445313	1092.229370117188	197.4418792724608	-1143.208129882813	1054.230102539063	210.5177612304687	-1181.516235351563	1283.459228515625	207.3348236083984	-1371.607177734375	1156.07177734375	115.6456756591795	-1334.91552734375	1293.827514648438	115.3771362304686	-1285.147216796875	1302.991943359375	43.21474838256821	-1235.717407226563	1307.21923828125	41.13422012329087	-1222.105224609375	1004.373840332031	-55.96303939819352	-1243.824951171875	977.9559326171877	23.4362068176268	-1237.997924804688	960.8610839843752	-24.01094627380387	-1018.013610839844	860.464050292969	-26.64912605285658	-1066.957397460938	829.1958618164065	-80.25244140625014	-948.8059082031252	804.441589355469	-34.91637420654309	-1020.816528320313	764.7459716796876	-86.55194091796889	-1379.56982421875	1148.667236328125	282.7111511230468	-1344.422607421875	1287.89453125	283.763214111328	-1300.664428710938	1292.637329101563	362.8562927246093	-1255.716064453125	1287.53125	385.4497375488281	-1375.897338867188	993.5684204101565	424.6702880859374	-1369.86083984375	983.3503417968752	343.017852783203	-1392.964721679688	978.6055908203127	388.5562133789062	-1311.432006835938	749.6381225585939	440.4594726562499	-1388.661865234375	766.5481567382814	459.2303161621093	-1333.142211914063	654.3164062500001	445.6602478027343	-1416.8310546875	704.4333496093751	464.9169921874999	
4	0.03	-1162.558837890625	861.5373535156252	68.43451690673815	-1358.167236328125	913.6593017578127	166.1584014892577	-1343.452880859375	906.2406005859377	268.9136962890624	-1139.703369140625	856.0366210937502	307.4258422851562	-1255.295166015625	846.102966308594	19.41902732849106	-1342.80419921875	426.8406372070314	80.74756622314437	-1329.134643554688	428.042694091797	210.3747406005858	-1377.167114257813	373.6493835449219	82.68132019042953	-1330.614013671875	348.7841491699219	139.6516113281249	-1535.526733398438	92.12363433837892	131.436309814453	-1502.909301757813	103.4216384887696	217.0144500732421	-1592.638793945313	65.26696777343751	187.705123901367	-1405.064819335938	18.30875015258789	184.5959472656249	-1404.933349609375	29.05922889709473	130.2219848632811	-1469.092041015625	17.45934104919434	95.02886199951155	-1206.391357421875	825.396423339844	394.5307006835937	-1068.989868164063	429.5930480957032	334.2577514648437	-1076.677978515625	427.8425903320314	199.9770507812499	-1057.698608398438	378.0281982421876	337.9838562011718	-1006.960998535156	394.714569091797	278.1621704101562	-919.5984497070315	72.30415344238283	315.7607421874999	-916.2434082031252	99.92121124267581	231.8571777343749	-951.2506103515627	21.4122486114502	265.8385925292968	-783.5527954101565	86.4181594848633	240.1148834228515	-789.275817871094	93.87585449218751	289.6040649414062	-818.6821289062502	62.10644531250001	330.2785949707031	-1279.102416992188	1367.147216796875	205.2929687499999	-1342.19970703125	1090.713623046875	198.7946472167968	-1127.16455078125	1052.928100585938	211.4179687499999	-1165.708251953125	1282.1220703125	208.4822692871093	-1355.936889648438	1154.581176757813	116.9155502319335	-1319.399169921875	1292.407836914063	116.722312927246	-1269.532348632813	1301.757934570313	44.47706604003891	-1220.1123046875	1306.02587890625	42.3614349365233	-1205.731079101563	1003.144958496094	-54.48854064941423	-1226.781860351563	976.5288696289065	25.08340263366685	-1220.7890625	959.189880371094	-22.40823554992691	-998.3062744140627	864.1772460937502	-25.6226673126222	-1046.759399414063	831.4621582031252	-78.78984832763686	-927.8806762695315	809.9212646484377	-33.66675186157239	-999.1279907226565	767.8355102539064	-84.64166259765639	-1363.531494140625	1147.061157226563	283.7680053710936	-1328.561279296875	1286.385131835938	284.7879333496093	-1285.020263671875	1291.52880859375	363.9397888183593	-1240.125610351563	1286.374267578125	386.7318420410156	-1363.94580078125	993.7733154296877	425.9760131835937	-1357.554565429688	983.3848266601565	344.4816894531249	-1380.499389648438	978.6981201171877	389.9394836425781	-1300.165405273438	749.5853271484376	441.6961059570312	-1377.264770507813	766.8546752929689	460.8833007812499	-1323.067749023438	654.2733764648439	444.9799499511718	-1406.114135742188	705.1558227539064	465.7164611816406	
